<?xml version="1.0" encoding="UTF-8" standalone="no"?>
<svg
   version="1"
   viewBox="0 0 673.72864 51.999998"
   id="svg13"
   sodipodi:docname="air-france-klm-logo.svg"
   inkscape:version="1.1.2 (b8e25be8, 2022-02-05)"
   width="673.72864"
   height="52"
   xmlns:inkscape="http://www.inkscape.org/namespaces/inkscape"
   xmlns:sodipodi="http://sodipodi.sourceforge.net/DTD/sodipodi-0.dtd"
   xmlns="http://www.w3.org/2000/svg"
   xmlns:svg="http://www.w3.org/2000/svg"
   xmlns:rdf="http://www.w3.org/1999/02/22-rdf-syntax-ns#"
   xmlns:cc="http://creativecommons.org/ns#"
   xmlns:dc="http://purl.org/dc/elements/1.1/">
  <metadata
     id="metadata19">
    <rdf:RDF>
      <cc:Work
         rdf:about="">
        <dc:format>image/svg+xml</dc:format>
        <dc:type
           rdf:resource="http://purl.org/dc/dcmitype/StillImage" />
      </cc:Work>
    </rdf:RDF>
  </metadata>
  <defs
     id="defs17">
    <linearGradient
       id="linearGradient1165"
       gradientUnits="userSpaceOnUse"
       x1="374.70001"
       y1="0.28999999"
       x2="374.70001"
       y2="34.099998"
       gradientTransform="matrix(1.447716,0,0,1.447716,-138.41343,6.3048726)">
      <stop
         offset=".33"
         stop-color="#FF1E27"
         id="stop4-2" />
      <stop
         offset="1"
         stop-color="#E81B23"
         id="stop6-0" />
    </linearGradient>
  </defs>
  <sodipodi:namedview
     pagecolor="#ffffff"
     bordercolor="#666666"
     borderopacity="1"
     objecttolerance="10"
     gridtolerance="10"
     guidetolerance="10"
     inkscape:pageopacity="0"
     inkscape:pageshadow="2"
     inkscape:window-width="1728"
     inkscape:window-height="978"
     id="namedview15"
     showgrid="false"
     inkscape:zoom="1.5540715"
     inkscape:cx="286.02287"
     inkscape:cy="130.62462"
     inkscape:window-x="0"
     inkscape:window-y="38"
     inkscape:window-maximized="1"
     inkscape:current-layer="svg13"
     inkscape:pagecheckerboard="0"
     fit-margin-top="0"
     fit-margin-left="0"
     fit-margin-right="0"
     fit-margin-bottom="0" />
  <linearGradient
     id="a"
     gradientUnits="userSpaceOnUse"
     x1="374.70001"
     y1="0.28999999"
     x2="374.70001"
     y2="34.099998"
     gradientTransform="matrix(1.447716,0,0,1.447716,-138.41343,6.3048726)">
    <stop
       offset=".33"
       stop-color="#FF1E27"
       id="stop4" />
    <stop
       offset="1"
       stop-color="#E81B23"
       id="stop6" />
  </linearGradient>
  <g
     id="g354"
     transform="translate(-26.736569,-1918.6361)">
    <g
       id="g851"
       transform="translate(172.61475,233.75702)">
      <path
         fill="url(#a)"
         d="M 409.40232,6.7247103 383.48821,44.220556 c -3.41661,4.951188 -8.97584,9.714174 -15.63534,10.220875 v 1.143696 h 28.80955 c 7.6729,0 13.26108,-4.994621 16.93828,-10.495942 L 440.23868,6.7247103 Z"
         id="path9"
         inkscape:export-xdpi="12.013515"
         inkscape:export-ydpi="12.013515"
         style="fill:url(#a);stroke-width:1.44772"
         transform="translate(-7.6819114,1679.526)" />
      <path
         fill="#002157"
         d="M -69.212471,55.672075 V 10.865179 h 13.087377 v 44.73451 h -13.087377 z m 301.704591,0 -31.41549,-26.493253 v 26.493253 h -11.0461 V 10.865179 h 9.38121 l 30.98119,26.20371 v -26.20371 h 11.04609 v 44.73451 h -8.9469 z m 68.47709,-30.402094 c -5.90669,-2.909915 -12.56619,-5.269696 -21.28146,-5.269696 -10.5394,0 -18.38603,5.443422 -18.38603,13.029469 0,7.77425 7.99142,13.261104 18.24125,13.261104 8.49812,0 15.20105,-2.171579 21.86057,-6.008033 V 51.37235 c -5.87775,2.909915 -13.68095,5.081493 -22.43965,5.081493 -17.80694,0 -31.99459,-9.149582 -31.99459,-23.308272 0,-14.057349 14.37585,-23.018728 31.99459,-23.018728 8.30991,0 15.78013,1.563536 22.00532,4.111522 z M 16.63725,55.672075 V 10.865179 h 43.721112 v 9.612852 H 29.811495 v 11.147435 h 29.823006 v 9.612853 H 29.811495 V 55.70103 H 16.63725 Z m 292.14965,0 V 10.865179 h 45.31359 v 9.612852 h -32.28413 v 7.759773 h 31.70504 v 9.62733 h -31.70504 v 8.223043 h 32.13936 V 55.70103 H 308.7869 Z M 105.81673,38.878537 123.76844,55.672075 h -13.956 c -3.08365,0 -5.12493,-0.969971 -6.74638,-2.533508 L 90.774929,41.223841 c -0.23163,-0.231634 -0.593561,-0.361929 -1.056832,-0.361929 H 81.350281 V 55.628643 H 68.262907 V 10.865179 H 96.49342 c 14.62196,0 20.84715,6.601598 20.84715,13.912578 0.34745,8.454677 -7.32545,12.50829 -11.52384,14.10078 z M 95.393148,31.3504 c 5.168362,0 7.672912,-2.634848 7.672912,-5.588195 0,-2.953346 -2.21501,-5.414468 -7.672912,-5.414468 H 81.480572 V 31.3504 Z M -6.5262539,38.878537 11.42546,55.672075 H -2.5305464 c -3.0981158,0 -5.1249197,-0.969971 -6.7463727,-2.533508 L -21.568052,41.223841 c -0.21715,-0.231634 -0.593561,-0.361929 -1.056832,-0.361929 H -30.97822 V 55.628643 H -44.065597 V 10.865179 h 28.230516 c 14.621957,0 20.8471487,6.601598 20.8471487,13.912578 0.3329807,8.454677 -7.3399337,12.50829 -11.5383216,14.10078 z M -16.949823,31.3504 c 5.168359,0 7.6729039,-2.634848 7.6729039,-5.588195 0,-2.953346 -2.2150039,-5.414468 -7.6729039,-5.414468 H -30.862399 V 31.3504 Z m -72.820255,24.321675 -5.732967,-9.844488 h -25.103445 l -5.21179,9.844488 h -12.37799 l 24.97315,-44.763464 h 11.36459 l 28.230516,44.734509 h -16.142064 z m -25.769402,-19.25466 h 14.4772 l -7.57157,-13.680942 z m 287.08264,19.25466 -5.5882,-9.844488 h -24.32167 l -5.03806,9.844488 h -12.16084 l 24.32168,-44.734509 h 11.04609 l 27.50666,44.734509 z m -25.19031,-19.25466 h 14.23108 l -7.39784,-13.680942 z"
         id="path11"
         inkscape:export-xdpi="12.013515"
         inkscape:export-ydpi="12.013515"
         style="stroke-width:1.44772"
         transform="translate(-7.6819114,1679.526)" />
      <g
         id="Current-header"
         transform="matrix(12.550962,0,0,12.550962,475.40619,1123.7662)"
         style="fill:none;fill-rule:evenodd;stroke:none;stroke-width:1"
         inkscape:export-filename="G:\Users\suitedoalex\sites\klm-logo-7.png"
         inkscape:export-xdpi="12.209129"
         inkscape:export-ydpi="12.209129">
        <g
           id="Group"
           style="fill:#00a1de"
           transform="matrix(0.8945467,0,0,0.8945467,-0.25689896,5.2648218)">
          <g
             id="g365"
             transform="matrix(0.09890888,0,0,0.09890888,-2.9223137,44.091531)">
            <polygon
               id="Path"
               points="8.8817842e-15,26.847407 8.8817842e-15,46.826151 7.469898,46.826151 7.469898,39.333244 14.939328,46.826151 24.898257,46.826151 13.693878,35.587493 22.408291,26.847407 14.939328,26.847407 7.469898,34.339845 7.469898,26.847407 " />
            <polygon
               id="polygon7"
               points="24.898257,26.847407 24.898257,46.826151 44.817985,46.826151 44.817985,41.788294 32.368155,41.788294 32.368155,26.847407 " />
            <polygon
               id="polygon9"
               points="79.67517,46.826151 79.67517,26.847407 67.22534,26.847407 63.491794,38.085597 59.756845,26.847407 47.307483,26.847407 47.307483,46.826151 54.777381,46.826151 54.777381,31.841274 59.756378,46.826151 67.22534,46.826151 72.205272,31.841274 72.205272,46.826151 " />
            <path
               d="m 34.857653,15.60828 c 2.406718,0 4.357441,-1.956177 4.357441,-4.370043 0,-2.4138663 -1.950723,-4.3709793 -4.357441,-4.3709793 -2.40625,0 -4.356973,1.956645 -4.356973,4.3709793 0,2.414334 1.950255,4.370043 4.356973,4.370043 z"
               id="path11-70"
               inkscape:connector-curvature="0" />
            <path
               d="m 40.460076,11.238237 c 0,2.414334 1.950723,4.370043 4.356973,4.370043 2.406718,0 4.357441,-1.956177 4.357441,-4.370043 0,-2.4138663 -1.950723,-4.3709793 -4.357441,-4.3709793 -2.40625,0 -4.356973,1.956645 -4.356973,4.3709793 z"
               id="path13"
               inkscape:connector-curvature="0" />
            <path
               d="m 29.255697,11.238237 c 0,-2.4143343 -1.950723,-4.3709793 -4.35744,-4.3709793 -2.40625,0 -4.356973,1.956645 -4.356973,4.3709793 0,2.414334 1.950723,4.370043 4.356973,4.370043 2.40625,0 4.35744,-1.955709 4.35744,-4.370043 z"
               id="path15"
               inkscape:connector-curvature="0" />
            <polygon
               id="polygon17"
               points="54.777381,21.851667 54.777381,16.856864 24.898257,16.856864 24.898257,21.851667 " />
            <path
               d="m 54.777381,6.8672577 c -2.407653,0 -4.357908,1.956645 -4.357908,4.3709793 0,2.414334 1.950255,4.370043 4.357908,4.370043 2.405315,0 4.356037,-1.956177 4.356037,-4.370043 0,-2.4138663 -1.950722,-4.3709793 -4.356037,-4.3709793 z"
               id="path19"
               inkscape:connector-curvature="0" />
            <polygon
               id="polygon21"
               points="41.0821,7.4920176 41.0821,4.994382 43.572534,4.994382 43.572534,2.4972144 41.0821,2.4972144 41.0821,4.6798493e-05 38.592602,4.6798493e-05 38.592602,2.4972144 36.103104,2.4972144 36.103104,4.994382 38.592602,4.994382 38.592602,7.4920176 " />
          </g>
        </g>
      </g>
    </g>
  </g>
</svg>
